<svg width="25" height="24" viewBox="0 0 25 24" fill="none" xmlns="http://www.w3.org/2000/svg">
<path d="M2.49998 10H14.5C15.8807 10 17 11.1193 17 12.5V21.5C17 22.8807 15.8807 24 14.5 24H2.49998C1.11928 24 0 22.8807 0 21.5V12.5C0 11.1193 1.11928 10 2.49998 10Z" fill="white"/>
<path d="M18 0C14.412 0.00440625 11.5044 2.91197 11.5 6.50002V10.5C11.5 10.7761 11.7239 11 12 11H14C14.2762 11 14.5 10.7761 14.5 10.5V6.50002C14.5 4.56698 16.067 3 18 3C19.933 3 21.5 4.56698 21.5 6.50002V10.5C21.5 10.7761 21.7239 11 22 11H24C24.2762 11 24.5 10.7761 24.5 10.5V6.50002C24.4956 2.91197 21.588 0.00440625 18 0Z" fill="white"/>
<path d="M24 11H22C21.7239 11 21.5 10.7761 21.5 10.5V6.50002C21.5 4.56698 19.933 3 18 3C16.067 3 14.5 4.56698 14.5 6.50002V10.5C14.5 10.7761 14.2761 11 14 11H12C11.7239 11 11.5 10.7761 11.5 10.5V6.50002C11.5 2.91014 14.4102 0 18 0C21.5898 0 24.5 2.91014 24.5 6.50002V10.5C24.5 10.7761 24.2762 11 24 11ZM22.5 9.99998H23.5V6.49997C23.5 3.46242 21.0376 0.999984 18 0.999984C14.9625 0.999984 12.5 3.46242 12.5 6.50002V10H13.5V6.50002C13.5 4.01475 15.5147 2.00002 18 2.00002C20.4853 2.00002 22.5 4.01475 22.5 6.50002V9.99998Z" fill="white"/>
<path d="M14.5 24H2.49998C1.11928 24 0 22.8807 0 21.5V12.5C0 11.1193 1.11928 10 2.49998 10H14.5C15.8807 10 17 11.1193 17 12.5V21.5C17 22.8807 15.8807 24 14.5 24ZM2.49998 11C1.67156 11 0.999984 11.6716 0.999984 12.5V21.5C0.999984 22.3284 1.67156 23 2.49998 23H14.5C15.3284 23 16 22.3284 16 21.5V12.5C16 11.6716 15.3284 11 14.5 11H2.49998Z" fill="white"/>
</svg>
