<svg width="293" height="120" viewBox="0 0 293 120" fill="none" xmlns="http://www.w3.org/2000/svg">
<g clip-path="url(#clip0)">
<path d="M60 0C40.6791 0.0220312 25.0221 15.6792 25.0001 34.9999V57.4999C25.0001 58.8806 26.1195 60 27.5002 60H37.5C38.8807 60 40.0001 58.8806 40.0001 57.4999V34.9999C40.0001 23.9543 48.9544 15 60 15C71.0456 15 79.9999 23.9543 79.9999 34.9999V57.4999C79.9999 58.8806 81.1193 60 82.5 60H92.5001C93.8808 60 95.0002 58.8806 95.0002 57.4999V34.9999C94.9779 15.6792 79.321 0.0220312 60 0Z" fill="#EBEBEB"/>
<path d="M92.5001 55H27.4999C23.3578 55 19.9999 58.3579 19.9999 62.5V107.5C19.9999 114.404 25.5963 120 32.4998 120H87.4999C94.4034 120 99.9998 114.404 99.9998 107.5V62.5C100 58.3579 96.6422 55 92.5001 55Z" fill="#EAB105"/>
</g>
<path d="M38.632 100.512L43.504 99.168V74.92L38.8 75.312L34.656 80.296L30.568 79.96C30.568 76.8613 30.7173 72.96 31.016 68.256H66.072C66.3707 72.96 66.52 76.8613 66.52 79.96L62.488 80.296L58.288 75.312L53.696 74.92V96.928C53.696 97.824 53.752 98.4027 53.864 98.664C53.976 98.9253 54.2933 99.1867 54.816 99.448L58.288 101.52L58.064 106H38.912L38.632 100.512ZM83.6603 106.672C79.2923 106.672 75.9136 105.347 73.5243 102.696C71.1723 100.045 69.9963 96.3867 69.9963 91.72C69.9963 88.472 70.5749 85.6907 71.7323 83.376C72.8896 81.024 74.5323 79.232 76.6603 78C78.7883 76.768 81.2709 76.152 84.1083 76.152C88.3269 76.152 91.5563 77.496 93.7963 80.184C96.0736 82.872 97.1563 86.6987 97.0443 91.664L80.0203 94.8C80.5429 96.368 81.2709 97.5253 82.2043 98.272C83.1749 98.9813 84.4443 99.336 86.0123 99.336C87.0949 99.336 88.3829 99.1867 89.8763 98.888C91.3696 98.552 92.8816 98.104 94.4123 97.544L95.7003 103.088C94.3189 104.133 92.5269 104.992 90.3243 105.664C88.1216 106.336 85.9003 106.672 83.6603 106.672ZM87.8603 86.96C87.7856 85.5413 87.3749 84.5147 86.6283 83.88C85.9189 83.208 84.9109 82.872 83.6043 82.872C82.5216 82.872 81.4949 83.0213 80.5243 83.32C79.7403 85.1493 79.3856 87.128 79.4603 89.256L87.8603 86.96ZM108.259 101.8L117.499 91.16L110.107 81.528C109.734 81.0427 109.398 80.6693 109.099 80.408C108.801 80.1093 108.595 79.9227 108.483 79.848L108.763 76.712H123.771L124.051 81.024L121.811 81.528L125.675 86.512L128.419 82.592C128.569 82.4053 128.643 82.2 128.643 81.976C128.643 81.7147 128.531 81.528 128.307 81.416L126.403 80.464L126.683 76.712H137.659L137.939 80.968L129.315 91.272L136.819 101.016C137.641 102.061 138.201 102.733 138.499 103.032L138.219 106H122.763L122.483 101.912L125.227 101.24L121.139 95.92L118.003 100.12C117.854 100.307 117.779 100.512 117.779 100.736C117.779 100.997 117.891 101.184 118.115 101.296L120.019 102.248L119.739 106H108.427L108.259 101.8ZM154.745 106.728C151.459 106.728 149.033 105.925 147.465 104.32C145.897 102.677 145.113 100.195 145.113 96.872V83.264H141.192V79.176L151.273 69.992L154.521 70.384V76.712H163.929V83.32H154.521V94.856C154.521 96.648 154.763 97.8427 155.249 98.44C155.771 99.0373 156.761 99.336 158.217 99.336C159.449 99.336 161.166 99.168 163.369 98.832L164.041 104.544C162.697 105.179 161.185 105.701 159.505 106.112C157.862 106.523 156.275 106.728 154.745 106.728ZM167.591 112.72L171.063 111.768V86.064C171.063 85.2427 171.007 84.72 170.895 84.496C170.783 84.2347 170.466 83.9547 169.943 83.656L167.423 82.312L167.703 78.112C167.89 78.0747 168.076 78.0373 168.263 78C168.45 77.9627 168.655 77.9253 168.879 77.888C170.634 77.552 172.482 77.2347 174.423 76.936C176.402 76.6 178.026 76.3947 179.295 76.32C179.631 77.104 179.855 78 179.967 79.008C181.124 78.0747 182.356 77.3653 183.663 76.88C185.007 76.3947 186.332 76.152 187.639 76.152C191.372 76.152 194.228 77.4773 196.207 80.128C198.223 82.7413 199.231 86.4747 199.231 91.328C199.231 96.368 197.85 100.232 195.087 102.92C192.324 105.571 188.33 106.896 183.103 106.896C182.543 106.896 181.666 106.859 180.471 106.784V109.864C180.471 110.685 180.527 111.227 180.639 111.488C180.751 111.749 181.068 112.011 181.591 112.272L184.895 114.12L184.671 118.04H167.871L167.591 112.72ZM184.559 99.952C186.314 99.952 187.732 99.7093 188.815 99.224C189.114 98.2907 189.356 97.1707 189.543 95.864C189.767 94.52 189.879 93.2693 189.879 92.112C189.879 89.2373 189.375 87.016 188.367 85.448C187.396 83.88 186.034 83.096 184.279 83.096C183.196 83.096 181.927 83.4133 180.471 84.048V99.28C181.554 99.728 182.916 99.952 184.559 99.952ZM215.752 106.728C212.467 106.728 210.04 105.925 208.472 104.32C206.904 102.677 206.12 100.195 206.12 96.872V83.264H202.2V79.176L212.28 69.992L215.528 70.384V76.712H224.936V83.32H215.528V94.856C215.528 96.648 215.771 97.8427 216.256 98.44C216.779 99.0373 217.768 99.336 219.224 99.336C220.456 99.336 222.174 99.168 224.376 98.832L225.048 104.544C223.704 105.179 222.192 105.701 220.512 106.112C218.87 106.523 217.283 106.728 215.752 106.728ZM242.121 106.672C237.753 106.672 234.375 105.347 231.985 102.696C229.633 100.045 228.457 96.3867 228.457 91.72C228.457 88.472 229.036 85.6907 230.193 83.376C231.351 81.024 232.993 79.232 235.121 78C237.249 76.768 239.732 76.152 242.569 76.152C246.788 76.152 250.017 77.496 252.257 80.184C254.535 82.872 255.617 86.6987 255.505 91.664L238.481 94.8C239.004 96.368 239.732 97.5253 240.665 98.272C241.636 98.9813 242.905 99.336 244.473 99.336C245.556 99.336 246.844 99.1867 248.337 98.888C249.831 98.552 251.343 98.104 252.873 97.544L254.161 103.088C252.78 104.133 250.988 104.992 248.785 105.664C246.583 106.336 244.361 106.672 242.121 106.672ZM246.321 86.96C246.247 85.5413 245.836 84.5147 245.089 83.88C244.38 83.208 243.372 82.872 242.065 82.872C240.983 82.872 239.956 83.0213 238.985 83.32C238.201 85.1493 237.847 87.128 237.921 89.256L246.321 86.96ZM271.67 106.728C268.086 106.728 265.286 105.384 263.27 102.696C261.254 100.008 260.246 96.4053 260.246 91.888C260.246 86.6987 261.609 82.7787 264.334 80.128C267.097 77.4773 271.017 76.152 276.094 76.152C276.393 76.152 277.364 76.1893 279.006 76.264V72.904C279.006 72.0827 278.95 71.5413 278.838 71.28C278.726 71.0187 278.409 70.7387 277.886 70.44L275.366 69.152L275.646 64.896C279.23 64.2613 281.881 63.832 283.598 63.608C285.316 63.3467 286.678 63.1973 287.686 63.16C288.022 64.0187 288.265 64.9893 288.414 66.072V97.936C288.414 98.608 288.47 99.0747 288.582 99.336C288.732 99.5973 289.049 99.8587 289.534 100.12L291.662 101.408L291.438 104.88C287.78 105.813 284.196 106.373 280.686 106.56C280.425 105.851 280.164 104.992 279.902 103.984C277.364 105.813 274.62 106.728 271.67 106.728ZM274.918 99.56C276.15 99.56 277.532 99.1493 279.062 98.328V83.824C277.942 83.3387 276.505 83.096 274.75 83.096C273.332 83.096 271.969 83.2827 270.662 83.656C270.364 84.3653 270.121 85.336 269.934 86.568C269.785 87.8 269.71 89.1627 269.71 90.656C269.71 93.7173 270.121 95.976 270.942 97.432C271.801 98.8507 273.126 99.56 274.918 99.56Z" fill="#EBEBEB"/>
<defs>
<clipPath id="clip0">
<rect width="120" height="120" fill="white"/>
</clipPath>
</defs>
</svg>
