<svg width="17" height="24" viewBox="0 0 17 24" fill="none" xmlns="http://www.w3.org/2000/svg">
<path d="M8.50002 0C4.91202 0.00440625 2.00441 2.91197 2 6.50002V10.5C2 10.7761 2.22388 11 2.50002 11H4.50003C4.77617 11 5.00005 10.7761 5.00005 10.5V6.50002C5 4.56698 6.56703 3 8.50002 3C10.433 3 12 4.56698 12 6.50002V10.5C12 10.7761 12.2239 11 12.5 11H14.5C14.7762 11 15 10.7761 15 10.5V6.50002C14.9956 2.91197 12.088 0.00440625 8.50002 0Z" fill="white"/>
<path d="M2.49998 10H14.5C15.8807 10 17 11.1193 17 12.5V21.5C17 22.8807 15.8807 24 14.5 24H2.49998C1.11928 24 0 22.8807 0 21.5V12.5C0 11.1193 1.11928 10 2.49998 10Z" fill="white"/>
<path d="M14.5 11H12.5C12.2239 11 12 10.7761 12 10.5V6.50002C12 4.56698 10.433 3 8.50002 3C6.56703 3 5 4.56698 5 6.50002V10.5C5 10.7761 4.77612 11 4.49998 11H2.50002C2.22388 11 2 10.7761 2 10.5V6.50002C2 2.91014 4.91019 0 8.50002 0C12.0898 0 15 2.91014 15 6.50002V10.5C15 10.7761 14.7762 11 14.5 11ZM13 9.99998H14V6.49997C14 3.46242 11.5376 0.999984 8.50002 0.999984C5.46247 0.999984 3.00003 3.46242 3.00003 6.50002V10H4.00002V6.50002C4.00002 4.01475 6.01475 2.00002 8.50002 2.00002C10.9853 2.00002 13 4.01475 13 6.50002V9.99998Z" fill="white"/>
<path d="M14.5 24H2.49998C1.11928 24 0 22.8807 0 21.5V12.5C0 11.1193 1.11928 10 2.49998 10H14.5C15.8807 10 17 11.1193 17 12.5V21.5C17 22.8807 15.8807 24 14.5 24ZM2.49998 11C1.67156 11 0.999984 11.6716 0.999984 12.5V21.5C0.999984 22.3284 1.67156 23 2.49998 23H14.5C15.3284 23 16 22.3284 16 21.5V12.5C16 11.6716 15.3284 11 14.5 11H2.49998Z" fill="white"/>
</svg>
